<svg width="26" height="24" viewBox="0 0 26 24" fill="none" xmlns="http://www.w3.org/2000/svg">
<path d="M21.9375 5.95087H18.6875V4.15399C18.6875 3.36112 17.9588 2.71649 17.0625 2.71649H8.9375C8.04121 2.71649 7.3125 3.36112 7.3125 4.15399V5.95087H4.0625C3.61309 5.95087 3.25 6.27206 3.25 6.66962V7.38837C3.25 7.4872 3.34141 7.56805 3.45312 7.56805H4.98672L5.61387 19.3151C5.65449 20.081 6.37051 20.6852 7.23633 20.6852H18.7637C19.632 20.6852 20.3455 20.0833 20.3861 19.3151L21.0133 7.56805H22.5469C22.6586 7.56805 22.75 7.4872 22.75 7.38837V6.66962C22.75 6.27206 22.3869 5.95087 21.9375 5.95087ZM16.8594 5.95087H9.14062V4.33368H16.8594V5.95087Z" fill="#51ACFF"/>
<path d="M21.9375 5.95087H18.6875V4.15399C18.6875 3.36112 17.9588 2.71649 17.0625 2.71649H8.9375C8.04121 2.71649 7.3125 3.36112 7.3125 4.15399V5.95087H4.0625C3.61309 5.95087 3.25 6.27206 3.25 6.66962V7.38837C3.25 7.4872 3.34141 7.56805 3.45312 7.56805H4.98672L5.61387 19.3151C5.65449 20.081 6.37051 20.6852 7.23633 20.6852H18.7637C19.632 20.6852 20.3455 20.0833 20.3861 19.3151L21.0133 7.56805H22.5469C22.6586 7.56805 22.75 7.4872 22.75 7.38837V6.66962C22.75 6.27206 22.3869 5.95087 21.9375 5.95087ZM16.8594 5.95087H9.14062V4.33368H16.8594V5.95087Z" fill="#51ACFF"/>
</svg>
