<svg width="26" height="23" viewBox="0 0 26 23" fill="none" xmlns="http://www.w3.org/2000/svg">
<path d="M21.9375 5.75H18.6875V3.95312C18.6875 3.16025 17.9588 2.51562 17.0625 2.51562H8.9375C8.04121 2.51562 7.3125 3.16025 7.3125 3.95312V5.75H4.0625C3.61309 5.75 3.25 6.07119 3.25 6.46875V7.1875C3.25 7.28633 3.34141 7.36719 3.45312 7.36719H4.98672L5.61387 19.1143C5.65449 19.8802 6.37051 20.4844 7.23633 20.4844H18.7637C19.632 20.4844 20.3455 19.8824 20.3861 19.1143L21.0133 7.36719H22.5469C22.6586 7.36719 22.75 7.28633 22.75 7.1875V6.46875C22.75 6.07119 22.3869 5.75 21.9375 5.75ZM16.8594 5.75H9.14062V4.13281H16.8594V5.75Z" fill="#51ACFF"/>
</svg>
