<svg width="61" height="60" viewBox="0 0 61 60" fill="none" xmlns="http://www.w3.org/2000/svg">
<g clip-path="url(#clip0_117_1247)">
<path d="M56.0144 31.102V3.77976C56.0144 2.80502 55.2242 2.01477 54.2495 2.01477H6.96161C5.98687 2.01477 5.19662 2.80502 5.19662 3.77976V33.2801C4.34519 33.4042 3.51282 33.7347 2.77647 34.2814C0.455155 35.9274 -0.0938738 39.6111 1.85056 41.8828L9.80042 51.5205C14.7214 57.2799 19.949 57.9855 27.7204 57.9855C34.3893 57.9855 37.3709 58.015 43.183 56.6906L48.8425 55.337C49.7601 56.6185 51.217 57.4486 52.8548 57.4486H55.6427C58.4128 57.4486 60.6665 55.0745 60.6665 52.1562V36.3785C60.6666 33.5921 58.6114 31.3032 56.0144 31.102ZM48.0812 34.7327L45.7295 33.5383C41.8629 31.5866 37.3924 31.5143 33.4647 33.3404C32.3931 33.7619 30.0559 35.176 28.8436 35.1287H20.6832C17.9764 35.1287 15.7742 37.3308 15.7742 40.0377V41.3249C15.759 41.3089 15.7431 41.2937 15.7282 41.2774L9.90079 34.9521C9.54815 34.5693 9.15197 34.249 8.72672 33.992V16.4811H23.1706V22.9511C23.1706 23.9258 23.9608 24.7161 24.9356 24.7161H36.0728C37.0475 24.7161 37.8378 23.9258 37.8378 22.9511V16.4811H52.4846V31.1019C50.4224 31.2612 48.7028 32.7365 48.0812 34.7327ZM26.7004 16.4811H34.3077V21.1861H26.7004V16.4811ZM52.4845 12.9511H37.8378V5.54475H52.4846V12.9511H52.4845ZM34.3078 5.54475V12.9512H26.7006V5.54475H34.3078ZM23.1705 5.54475V12.9512H8.7266V5.54475H23.1705ZM42.3638 53.2569C36.9947 54.4866 33.7611 54.4368 27.7837 54.4368C20.4884 54.4368 16.9635 54.3189 12.5237 49.2741L4.57382 39.6365C3.19101 37.8358 5.69565 35.7102 7.30461 37.3436L13.132 43.6691C14.6721 45.2942 16.6102 46.1886 18.999 46.2412H35.1554C36.1302 46.2412 36.9204 45.4509 36.9204 44.4762C36.9204 43.5014 36.1302 42.7112 35.1554 42.7112H19.3041V40.0375C19.3041 39.2771 19.9226 38.6584 20.6831 38.6584H28.8435C30.6819 38.7901 33.3354 37.255 34.9528 36.5411C37.8945 35.1734 41.2428 35.2275 44.1349 36.6873L47.8312 38.5648V51.949L42.3638 53.2569ZM57.1366 52.1561C57.1366 53.1279 56.4665 53.9185 55.6428 53.9185H52.8549C52.0312 53.9185 51.3612 53.1279 51.3612 52.1561V36.3785C51.3612 35.4067 52.0313 34.616 52.8549 34.616H55.6428C56.4665 34.616 57.1366 35.4066 57.1366 36.3785V52.1561Z" fill="#242424"/>
</g>
<defs>
<clipPath id="clip0_117_1247">
<rect width="60" height="60" fill="white" transform="translate(0.666504)"/>
</clipPath>
</defs>
</svg>
