<svg width="61" height="60" viewBox="0 0 61 60" fill="none" xmlns="http://www.w3.org/2000/svg">
<g clip-path="url(#clip0_127_2019)">
<path d="M56.0144 31.102V3.7797C56.0144 2.80495 55.2242 2.01471 54.2495 2.01471H6.96161C5.98687 2.01471 5.19662 2.80495 5.19662 3.7797V33.2801C4.34519 33.4041 3.51282 33.7346 2.77647 34.2813C0.455155 35.9273 -0.0938738 39.611 1.85056 41.8828L9.80042 51.5204C14.7214 57.2798 19.949 57.9855 27.7204 57.9855C34.3893 57.9855 37.3709 58.0149 43.183 56.6906L48.8425 55.3369C49.7601 56.6184 51.217 57.4486 52.8548 57.4486H55.6427C58.4128 57.4486 60.6665 55.0744 60.6665 52.1562V36.3785C60.6666 33.592 58.6114 31.3032 56.0144 31.102ZM48.0812 34.7327L45.7295 33.5382C41.8629 31.5865 37.3924 31.5143 33.4647 33.3403C32.3931 33.7618 30.0559 35.1759 28.8436 35.1286H20.6832C17.9764 35.1286 15.7742 37.3307 15.7742 40.0376V41.3248C15.759 41.3088 15.7431 41.2936 15.7282 41.2774L9.90079 34.952C9.54815 34.5692 9.15197 34.249 8.72672 33.992V16.481H23.1706V22.951C23.1706 23.9258 23.9608 24.716 24.9356 24.716H36.0728C37.0475 24.716 37.8378 23.9258 37.8378 22.951V16.481H52.4846V31.1019C50.4224 31.2612 48.7028 32.7365 48.0812 34.7327ZM26.7004 16.481H34.3077V21.186H26.7004V16.481ZM52.4845 12.9511H37.8378V5.54469H52.4846V12.9511H52.4845ZM34.3078 5.54469V12.9512H26.7006V5.54469H34.3078ZM23.1705 5.54469V12.9512H8.7266V5.54469H23.1705ZM42.3638 53.2568C36.9947 54.4866 33.7611 54.4368 27.7837 54.4368C20.4884 54.4368 16.9635 54.3189 12.5237 49.2741L4.57382 39.6364C3.19101 37.8358 5.69565 35.7101 7.30461 37.3436L13.132 43.6691C14.6721 45.2941 16.6102 46.1885 18.999 46.2411H35.1554C36.1302 46.2411 36.9204 45.4509 36.9204 44.4761C36.9204 43.5014 36.1302 42.7111 35.1554 42.7111H19.3041V40.0374C19.3041 39.2771 19.9226 38.6584 20.6831 38.6584H28.8435C30.6819 38.79 33.3354 37.255 34.9528 36.5411C37.8945 35.1733 41.2428 35.2275 44.1349 36.6872L47.8312 38.5647V51.949L42.3638 53.2568ZM57.1366 52.1561C57.1366 53.1279 56.4665 53.9185 55.6428 53.9185H52.8549C52.0312 53.9185 51.3612 53.1279 51.3612 52.1561V36.3785C51.3612 35.4067 52.0313 34.616 52.8549 34.616H55.6428C56.4665 34.616 57.1366 35.4065 57.1366 36.3785V52.1561Z" fill="#242424"/>
</g>
<defs>
<clipPath id="clip0_127_2019">
<rect width="60" height="60" fill="white" transform="translate(0.666504)"/>
</clipPath>
</defs>
</svg>
